<?xml version="1.0" encoding="UTF-8"?>
<svg id="Layer_1" width="391" height="119" xmlns="http://www.w3.org/2000/svg" version="1.1" viewBox="0 0 391 119">
  <!-- Generator: Adobe Illustrator 30.2.0, SVG Export Plug-In . SVG Version: 2.1.1 Build 105)  -->
  <defs>
    <style>
      .st0 {
        fill: #0339a7;
      }

      .st1 {
        isolation: isolate;
      }

      .st2 {
        fill: #021059;
      }
    </style>
  </defs>
  <path class="st0" d="M19.91,36.23c4.45,7.31,10.11,12.95,15.62,20.85l-26.77.23c-4.94.02-8.76-3.93-8.76-8.8L.07,14.61l34.44-.13c4.96,0,8.85,4.09,8.83,9.26l-.14,29.54-23.29-17.07h0v.02Z"/>
  <path class="st0" d="M43.29,95.91c0,4.29-3.99,8.6-7.9,8.6l-35.32-.04-.05-35.32c.75-3.39,3.27-7.02,7.07-7.02l29.95-.04-17.45,22.93,23.61-17.4s.09,28.28.09,28.28Z"/>
  <path class="st2" d="M54.51,104.39c-4.35,0-6.8-5.48-7.31-8.65l.18-26.63,21.4,15.46-16.95-22.37,32.35-.05c2.78,0,6.41,3.99,6.41,6.84l.09,35.55-36.16-.14h-.02Z"/>
  <path class="st0" d="M84.64,53.45l-33.61.05-.05-31.55c0-2.57,2.93-7.2,5.75-7.24l33.92-.25-.04,33.25c0,2.24-3.54,5.71-5.96,5.71h0v.02Z"/>
  <g>
    <g class="st1">
      <g class="st1">
        <path class="st2" d="M100.42,104.53v-9.72h29.04c2.26,0,3.62-1.05,3.62-2.94s-1.37-3.1-3.62-3.1h-17.02c-7.83,0-12.66-4.52-12.66-11.13s4.52-11.29,12.76-11.29h27.78v9.66h-27.78c-1.58,0-2.68.89-2.68,2.73s1.1,2.73,2.68,2.73h16.91c8.35,0,12.81,3.52,12.81,11.29,0,6.72-4.2,11.77-12.81,11.77h-29.04Z"/>
        <path class="st2" d="M146.95,104.53v-38.18h9.72v38.18h-9.72ZM177.04,104.53l-16.07-15.6c-1.63-1.58-2-2.68-2-3.94,0-1.52.63-2.68,2.42-4.36l15.02-14.28h14.23l-20.33,18.7,21.06,19.49h-14.34Z"/>
        <path class="st2" d="M211.6,104.53v-13.23l-19.59-24.95h13.02l11.76,16.07,11.82-16.07h12.29l-19.64,24.95v13.23h-9.66Z"/>
        <path class="st2" d="M259.86,104.53v-38.18h35.24v9.66h-25.58v18.8h25.68v9.72h-35.35ZM274.2,88.77v-7.3h19.43v7.3h-19.43Z"/>
        <path class="st2" d="M332.6,104.53l-8.93-10.19h-9.45v-8.14h13.71c3.2,0,5.15-2,5.15-5.09s-1.94-5.1-5.15-5.1h-18.38v28.52h-9.66v-38.18h28.04c9.19,0,14.65,5.62,14.65,14.39,0,6.25-2.94,10.45-7.61,12.34l11.4,11.45h-13.76Z"/>
        <path class="st2" d="M363.11,94.5v-9.35h13.18c3.26,0,5.2-1.78,5.2-4.57s-1.94-4.57-5.2-4.57h-17.86v28.52h-9.66v-38.18h27.52c9.24,0,14.71,5.41,14.71,13.92s-5.46,14.23-14.71,14.23h-13.18Z"/>
      </g>
    </g>
    <g class="st1">
      <g class="st1">
        <path class="st0" d="M308.04,54.13v-6.13h8.64c2.14,0,3.41-1.17,3.41-3s-1.27-3-3.41-3h-11.71v18.7h-6.34v-25.04h18.04c6.06,0,9.64,3.55,9.64,9.13s-3.58,9.33-9.64,9.33h-8.64Z"/>
        <path class="st0" d="M350.19,60.7l-5.85-6.68h-6.2v-5.34h8.99c2.1,0,3.38-1.31,3.38-3.34s-1.27-3.34-3.38-3.34h-12.05v18.7h-6.34v-25.04h18.39c6.03,0,9.61,3.69,9.61,9.44,0,4.1-1.93,6.85-4.99,8.09l7.47,7.51h-9.02Z"/>
        <path class="st0" d="M372.06,60.7c-7.27,0-12.6-5.51-12.6-12.78s5.34-12.26,12.6-12.26h6.3c7.47,0,12.64,4.99,12.64,12.26s-5.3,12.78-12.64,12.78h-6.3ZM378.36,54.33c3.72,0,6.3-2.55,6.3-6.09s-2.62-6.23-6.3-6.23h-6.3c-3.58,0-6.23,2.65-6.23,6.23s2.58,6.09,6.23,6.09h6.3Z"/>
      </g>
    </g>
  </g>
</svg>